M48
; DRILL file {KiCad (5.99.0-7355-g8781ce7efb)} date 03/09/21 10:35:08
; FORMAT={-:-/ absolute / inch / decimal}
; #@! TF.CreationDate,2021-03-09T10:35:08+01:00
; #@! TF.GenerationSoftware,Kicad,Pcbnew,(5.99.0-7355-g8781ce7efb)
; #@! TF.FileFunction,Plated,1,2,PTH
FMAT,2
INCH
T1C0.0236
T2C0.0472
T3C0.0945
T4C0.1181
%
G90
G05
T1
X5.75Y-3.1
X5.75Y-3.7
X5.75Y-4.3
X5.75Y-4.9
T2
X5.375Y-2.875
X5.375Y-3.025
X5.375Y-3.175
X5.375Y-3.325
X5.375Y-3.475
X5.375Y-3.625
X5.375Y-3.775
X5.375Y-3.925
X5.375Y-4.075
X5.375Y-4.225
X5.375Y-4.375
X5.375Y-4.525
X5.375Y-4.675
X5.375Y-4.825
X5.375Y-4.975
X5.375Y-5.125
X5.475Y-2.875
X5.475Y-3.025
X5.475Y-3.175
X5.475Y-3.325
X5.475Y-3.475
X5.475Y-3.625
X5.475Y-3.775
X5.475Y-3.925
X5.475Y-4.075
X5.475Y-4.225
X5.475Y-4.375
X5.475Y-4.525
X5.475Y-4.675
X5.475Y-4.825
X5.475Y-4.975
X5.475Y-5.125
X5.9396Y-2.875
X5.9396Y-3.025
X5.9396Y-3.175
X5.9396Y-3.325
X5.9396Y-3.475
X5.9396Y-3.625
X5.9396Y-3.775
X5.9396Y-3.925
X5.9396Y-4.075
X5.9396Y-4.225
X5.9396Y-4.375
X5.9396Y-4.525
X5.9396Y-4.675
X5.9396Y-4.825
X5.9396Y-4.975
X5.9396Y-5.125
T3
X5.975Y-2.6978
X5.975Y-5.3022
T4
X5.425Y-2.675
X5.425Y-5.325
T0
M30
