G04 #@! TF.GenerationSoftware,KiCad,Pcbnew,(5.99.0-7355-g8781ce7efb)*
G04 #@! TF.CreationDate,2021-03-09T10:35:05+01:00*
G04 #@! TF.ProjectId,NI9217Filter,4e493932-3137-4466-996c-7465722e6b69,rev?*
G04 #@! TF.SameCoordinates,Original*
G04 #@! TF.FileFunction,Copper,L2,Bot*
G04 #@! TF.FilePolarity,Positive*
%FSLAX46Y46*%
G04 Gerber Fmt 4.6, Leading zero omitted, Abs format (unit mm)*
G04 Created by KiCad (PCBNEW (5.99.0-7355-g8781ce7efb)) date 2021-03-09 10:35:05*
%MOMM*%
%LPD*%
G01*
G04 APERTURE LIST*
G04 Aperture macros list*
%AMRoundRect*
0 Rectangle with rounded corners*
0 $1 Rounding radius*
0 $2 $3 $4 $5 $6 $7 $8 $9 X,Y pos of 4 corners*
0 Add a 4 corners polygon primitive as box body*
4,1,4,$2,$3,$4,$5,$6,$7,$8,$9,$2,$3,0*
0 Add four circle primitives for the rounded corners*
1,1,$1+$1,$2,$3,0*
1,1,$1+$1,$4,$5,0*
1,1,$1+$1,$6,$7,0*
1,1,$1+$1,$8,$9,0*
0 Add four rect primitives between the rounded corners*
20,1,$1+$1,$2,$3,$4,$5,0*
20,1,$1+$1,$4,$5,$6,$7,0*
20,1,$1+$1,$6,$7,$8,$9,0*
20,1,$1+$1,$8,$9,$2,$3,0*%
G04 Aperture macros list end*
G04 #@! TA.AperFunction,ComponentPad*
%ADD10O,3.000000X1.800000*%
G04 #@! TD*
G04 #@! TA.AperFunction,ComponentPad*
%ADD11C,3.600000*%
G04 #@! TD*
G04 #@! TA.AperFunction,ComponentPad*
%ADD12C,2.200000*%
G04 #@! TD*
G04 #@! TA.AperFunction,ComponentPad*
%ADD13C,4.000000*%
G04 #@! TD*
G04 #@! TA.AperFunction,SMDPad,CuDef*
%ADD14RoundRect,0.243750X0.243750X0.456250X-0.243750X0.456250X-0.243750X-0.456250X0.243750X-0.456250X0*%
G04 #@! TD*
G04 #@! TA.AperFunction,SMDPad,CuDef*
%ADD15RoundRect,0.243750X0.456250X-0.243750X0.456250X0.243750X-0.456250X0.243750X-0.456250X-0.243750X0*%
G04 #@! TD*
G04 #@! TA.AperFunction,SMDPad,CuDef*
%ADD16RoundRect,0.250000X2.450000X-0.650000X2.450000X0.650000X-2.450000X0.650000X-2.450000X-0.650000X0*%
G04 #@! TD*
G04 #@! TA.AperFunction,ViaPad*
%ADD17C,1.000000*%
G04 #@! TD*
G04 #@! TA.AperFunction,Conductor*
%ADD18C,0.400000*%
G04 #@! TD*
G04 #@! TA.AperFunction,Conductor*
%ADD19C,2.000000*%
G04 #@! TD*
G04 APERTURE END LIST*
D10*
X150865000Y-130175000D03*
X150865000Y-126365000D03*
X150865000Y-122555000D03*
X150865000Y-118745000D03*
X150865000Y-114935000D03*
X150865000Y-111125000D03*
X150865000Y-107315000D03*
X150865000Y-103505000D03*
X150865000Y-99695000D03*
X150865000Y-95885000D03*
X150865000Y-92075000D03*
X150865000Y-88265000D03*
X150865000Y-84455000D03*
X150865000Y-80645000D03*
X150865000Y-76835000D03*
X150865000Y-73025000D03*
D11*
X151765000Y-134675000D03*
X151765000Y-68525000D03*
D12*
X136525000Y-103505000D03*
X139065000Y-103505000D03*
X136525000Y-107315000D03*
X139065000Y-107315000D03*
X136525000Y-111125000D03*
X139065000Y-111125000D03*
X136525000Y-114935000D03*
X139065000Y-114935000D03*
X136525000Y-118745000D03*
X139065000Y-118745000D03*
X136525000Y-122555000D03*
X139065000Y-122555000D03*
X136525000Y-126365000D03*
X139065000Y-126365000D03*
X136525000Y-130175000D03*
X139065000Y-130175000D03*
X136525000Y-73025000D03*
X139065000Y-73025000D03*
X136525000Y-76835000D03*
X139065000Y-76835000D03*
X136525000Y-80645000D03*
X139065000Y-80645000D03*
X136525000Y-84455000D03*
X139065000Y-84455000D03*
X136525000Y-88265000D03*
X139065000Y-88265000D03*
X136525000Y-92075000D03*
X139065000Y-92075000D03*
X136525000Y-95885000D03*
X139065000Y-95885000D03*
X136525000Y-99695000D03*
X139065000Y-99695000D03*
D13*
X137795000Y-135255000D03*
X137795000Y-67945000D03*
D14*
X147925000Y-129413000D03*
X146050000Y-129413000D03*
D15*
X147701000Y-127224000D03*
X147701000Y-125349000D03*
X147701000Y-123571000D03*
X147701000Y-121696000D03*
D16*
X143637000Y-127010000D03*
X143637000Y-121910000D03*
X143637000Y-111770000D03*
X143637000Y-106670000D03*
D14*
X147925000Y-119507000D03*
X146050000Y-119507000D03*
X147925000Y-114173000D03*
X146050000Y-114173000D03*
X147925000Y-104267000D03*
X146050000Y-104267000D03*
D15*
X147701000Y-108331000D03*
X147701000Y-106456000D03*
X147701000Y-111984000D03*
X147701000Y-110109000D03*
D16*
X143637000Y-96530000D03*
X143637000Y-91430000D03*
D14*
X147925000Y-98933000D03*
X146050000Y-98933000D03*
X147925000Y-89027000D03*
X146050000Y-89027000D03*
D15*
X147701000Y-93091000D03*
X147701000Y-91216000D03*
X147701000Y-81504000D03*
X147701000Y-79629000D03*
X147701000Y-77851000D03*
X147701000Y-75976000D03*
X147701000Y-96744000D03*
X147701000Y-94869000D03*
D14*
X147925000Y-83693000D03*
X146050000Y-83693000D03*
D16*
X143637000Y-81290000D03*
X143637000Y-76190000D03*
D14*
X147925000Y-73787000D03*
X146050000Y-73787000D03*
D17*
X146050000Y-124460000D03*
X146050000Y-109220000D03*
X146050000Y-93980000D03*
X146050000Y-78740000D03*
D18*
X149595000Y-131445000D02*
X150865000Y-130175000D01*
X139065000Y-130175000D02*
X140335000Y-131445000D01*
X140335000Y-131445000D02*
X149595000Y-131445000D01*
D19*
X136525000Y-130175000D02*
X139065000Y-130175000D01*
D18*
X139065000Y-114935000D02*
X140335000Y-116205000D01*
X140335000Y-116205000D02*
X149595000Y-116205000D01*
X149595000Y-116205000D02*
X150865000Y-114935000D01*
D19*
X136525000Y-114935000D02*
X139065000Y-114935000D01*
D18*
X150846000Y-76835000D02*
X150865000Y-76835000D01*
X147925000Y-73787000D02*
X150865000Y-76727000D01*
X150865000Y-76727000D02*
X150865000Y-76835000D01*
X150865000Y-80753000D02*
X150865000Y-80645000D01*
X147925000Y-83693000D02*
X150865000Y-80753000D01*
X150865000Y-80880000D02*
X150865000Y-80645000D01*
X150846000Y-92075000D02*
X150865000Y-92075000D01*
X147925000Y-89027000D02*
X150865000Y-91967000D01*
X150865000Y-91967000D02*
X150865000Y-92075000D01*
X150865000Y-95993000D02*
X150865000Y-95885000D01*
X147925000Y-98933000D02*
X150865000Y-95993000D01*
X150865000Y-96120000D02*
X150865000Y-95885000D01*
X150846000Y-107188000D02*
X150865000Y-107188000D01*
X150865000Y-107207000D02*
X150865000Y-107315000D01*
X147925000Y-104267000D02*
X150865000Y-107207000D01*
X150865000Y-111233000D02*
X150865000Y-110998000D01*
X150865000Y-111233000D02*
X150865000Y-111125000D01*
X147925000Y-114173000D02*
X150865000Y-111233000D01*
X147925000Y-119507000D02*
X150865000Y-122447000D01*
X150865000Y-122447000D02*
X150865000Y-122555000D01*
X147925000Y-129413000D02*
X150865000Y-126473000D01*
X150865000Y-126473000D02*
X150865000Y-126365000D01*
X139065000Y-99695000D02*
X140335000Y-100965000D01*
X140335000Y-100965000D02*
X149595000Y-100965000D01*
D19*
X136525000Y-99695000D02*
X139065000Y-99695000D01*
D18*
X149595000Y-100965000D02*
X150865000Y-99695000D01*
X149595000Y-85725000D02*
X140335000Y-85725000D01*
X150865000Y-84455000D02*
X149595000Y-85725000D01*
X140335000Y-85725000D02*
X139065000Y-84455000D01*
D19*
X136525000Y-84455000D02*
X139065000Y-84455000D01*
D18*
X147701000Y-111984000D02*
X143851000Y-111984000D01*
X146050000Y-114173000D02*
X146050000Y-113373000D01*
X146050000Y-113373000D02*
X146050000Y-112395000D01*
X143851000Y-111984000D02*
X143637000Y-111770000D01*
D19*
X136525000Y-111125000D02*
X139065000Y-111125000D01*
D18*
X142992000Y-111125000D02*
X143637000Y-111770000D01*
X139065000Y-111125000D02*
X142992000Y-111125000D01*
X146050000Y-106426000D02*
X143881000Y-106426000D01*
X146050000Y-104267000D02*
X146050000Y-106426000D01*
X147701000Y-106456000D02*
X143851000Y-106456000D01*
X143851000Y-106456000D02*
X143637000Y-106670000D01*
X143881000Y-106426000D02*
X143637000Y-106670000D01*
D19*
X136525000Y-107315000D02*
X139065000Y-107315000D01*
D18*
X139065000Y-107315000D02*
X142992000Y-107315000D01*
X142992000Y-107315000D02*
X143637000Y-106670000D01*
X146050000Y-97028000D02*
X145552000Y-96530000D01*
X146050000Y-98933000D02*
X146050000Y-97028000D01*
X145552000Y-96530000D02*
X143637000Y-96530000D01*
X147701000Y-96744000D02*
X143851000Y-96744000D01*
X143851000Y-96744000D02*
X143637000Y-96530000D01*
D19*
X136525000Y-95885000D02*
X139065000Y-95885000D01*
D18*
X142992000Y-95885000D02*
X143637000Y-96530000D01*
X139065000Y-95885000D02*
X142992000Y-95885000D01*
X146050000Y-91059000D02*
X145679000Y-91430000D01*
X146050000Y-89027000D02*
X146050000Y-91059000D01*
X145679000Y-91430000D02*
X143637000Y-91430000D01*
X143851000Y-91216000D02*
X143637000Y-91430000D01*
X147701000Y-91216000D02*
X143851000Y-91216000D01*
D19*
X136525000Y-92075000D02*
X139065000Y-92075000D01*
D18*
X139065000Y-92075000D02*
X142992000Y-92075000D01*
X142992000Y-92075000D02*
X143637000Y-91430000D01*
X146050000Y-81915000D02*
X145425000Y-81290000D01*
X146050000Y-83693000D02*
X146050000Y-81915000D01*
X145425000Y-81290000D02*
X143637000Y-81290000D01*
X143851000Y-81504000D02*
X143637000Y-81290000D01*
X147701000Y-81504000D02*
X143851000Y-81504000D01*
X142992000Y-80645000D02*
X143637000Y-81290000D01*
X139065000Y-80645000D02*
X142992000Y-80645000D01*
D19*
X136525000Y-80645000D02*
X139065000Y-80645000D01*
D18*
X146050000Y-75692000D02*
X145552000Y-76190000D01*
X146050000Y-73787000D02*
X146050000Y-75692000D01*
X145552000Y-76190000D02*
X143637000Y-76190000D01*
X147701000Y-75976000D02*
X143851000Y-75976000D01*
X142992000Y-76835000D02*
X143637000Y-76190000D01*
D19*
X136525000Y-76835000D02*
X139065000Y-76835000D01*
D18*
X139065000Y-76835000D02*
X142992000Y-76835000D01*
X150865000Y-118745000D02*
X149595000Y-117475000D01*
X146939000Y-125349000D02*
X146050000Y-124460000D01*
X147701000Y-123571000D02*
X146939000Y-123571000D01*
X149595000Y-117475000D02*
X140335000Y-117475000D01*
X140335000Y-117475000D02*
X139065000Y-118745000D01*
D19*
X136525000Y-118745000D02*
X139065000Y-118745000D01*
D18*
X146939000Y-123571000D02*
X146050000Y-124460000D01*
X147701000Y-125349000D02*
X146939000Y-125349000D01*
D19*
X136525000Y-103505000D02*
X139065000Y-103505000D01*
D18*
X147701000Y-108331000D02*
X146939000Y-108331000D01*
X149595000Y-102235000D02*
X140335000Y-102235000D01*
X147701000Y-110109000D02*
X146939000Y-110109000D01*
X140335000Y-102235000D02*
X139065000Y-103505000D01*
X146939000Y-110109000D02*
X146050000Y-109220000D01*
X146939000Y-108331000D02*
X146050000Y-109220000D01*
X150865000Y-103505000D02*
X149595000Y-102235000D01*
X146939000Y-93091000D02*
X146050000Y-93980000D01*
D19*
X136525000Y-88265000D02*
X139065000Y-88265000D01*
D18*
X150865000Y-88265000D02*
X149595000Y-86995000D01*
X147701000Y-93091000D02*
X146939000Y-93091000D01*
X149595000Y-86995000D02*
X140335000Y-86995000D01*
X146939000Y-94869000D02*
X146050000Y-93980000D01*
X147701000Y-94869000D02*
X146939000Y-94869000D01*
X140335000Y-86995000D02*
X139065000Y-88265000D01*
X139065000Y-73025000D02*
X140335000Y-71755000D01*
X147701000Y-79629000D02*
X146939000Y-79629000D01*
X146939000Y-77851000D02*
X146050000Y-78740000D01*
X149595000Y-71755000D02*
X150865000Y-73025000D01*
X146939000Y-79629000D02*
X146050000Y-78740000D01*
X140335000Y-71755000D02*
X149595000Y-71755000D01*
D19*
X136525000Y-73025000D02*
X139065000Y-73025000D01*
D18*
X147701000Y-77851000D02*
X146939000Y-77851000D01*
D19*
X136525000Y-126365000D02*
X139065000Y-126365000D01*
D18*
X143851000Y-127224000D02*
X143637000Y-127010000D01*
X147701000Y-127224000D02*
X143851000Y-127224000D01*
X146050000Y-127762000D02*
X145669000Y-127381000D01*
X142992000Y-126365000D02*
X143637000Y-127010000D01*
X139065000Y-126365000D02*
X142992000Y-126365000D01*
X146050000Y-129413000D02*
X146050000Y-127762000D01*
X147701000Y-121696000D02*
X143851000Y-121696000D01*
X146050000Y-121158000D02*
X145796000Y-121412000D01*
X139065000Y-122555000D02*
X142992000Y-122555000D01*
X143851000Y-121696000D02*
X143637000Y-121910000D01*
X142992000Y-122555000D02*
X143637000Y-121910000D01*
D19*
X136525000Y-122555000D02*
X139065000Y-122555000D01*
D18*
X146050000Y-119507000D02*
X146050000Y-121158000D01*
M02*
